<svg xmlns="http://www.w3.org/2000/svg" width="1440" height="900" viewBox="0 0 1440 900" fill="none">
  <defs>
    <linearGradient id="bg" x1="0" y1="0" x2="1440" y2="900" gradientUnits="userSpaceOnUse">
      <stop stop-color="#F4FFFC"/>
      <stop offset="1" stop-color="#DDF7F1"/>
    </linearGradient>
    <linearGradient id="card" x1="0" y1="0" x2="0" y2="620" gradientUnits="userSpaceOnUse">
      <stop stop-color="#FBFFFE"/>
      <stop offset="1" stop-color="#EEFBF8"/>
    </linearGradient>
  </defs>
  <rect width="1440" height="900" fill="url(#bg)"/>
  <circle cx="1250" cy="120" r="180" fill="#B6EFE1" fill-opacity=".45"/>
  <circle cx="150" cy="760" r="210" fill="#A7F3D0" fill-opacity=".35"/>
  <rect x="180" y="120" width="1080" height="650" rx="28" fill="url(#card)" stroke="#B9E8DD" stroke-width="2"/>
  <text x="230" y="190" fill="#173533" font-family="Segoe UI, Arial, sans-serif" font-size="40" font-weight="700">红外按键面板</text>
  <text x="230" y="232" fill="#5B7974" font-family="Segoe UI, Arial, sans-serif" font-size="22">先在 ESPHome 上学习红外，再在 Home Assistant 里保存、发射和删除按键。</text>
  <rect x="860" y="150" width="350" height="70" rx="22" fill="#FFFFFF" stroke="#CBEDE5"/>
  <text x="892" y="180" fill="#31534E" font-family="Segoe UI, Arial, sans-serif" font-size="18">存储实体：sensor.esp_ir_store | 当前状态：3</text>
  <circle cx="894" cy="202" r="5" fill="#22C55E"/>
  <circle cx="894" cy="202" r="8" fill="#22C55E" fill-opacity=".16"/>
  <text x="910" y="208" fill="#5B7974" font-family="Segoe UI, Arial, sans-serif" font-size="16">MQTT：</text>
  <text x="964" y="208" fill="#173533" font-family="Segoe UI, Arial, sans-serif" font-size="16" font-weight="700">连接</text>
  <rect x="230" y="280" width="430" height="58" rx="16" fill="#FFFFFF" stroke="#D5ECE7"/>
  <text x="255" y="317" fill="#7C9692" font-family="Segoe UI, Arial, sans-serif" font-size="22">输入按键名称，例如 空调打开 或 ac_power_on</text>
  <rect x="680" y="280" width="250" height="58" rx="16" fill="#0F766E"/>
  <text x="726" y="317" fill="#FFFFFF" font-family="Segoe UI, Arial, sans-serif" font-size="22" font-weight="700">一键保存当前学习结果</text>
  <rect x="950" y="280" width="210" height="58" rx="16" fill="#FFFFFF" stroke="#CBEDE5"/>
  <text x="984" y="317" fill="#23403D" font-family="Segoe UI, Arial, sans-serif" font-size="22" font-weight="700">发送最近学习结果</text>
  <g>
    <rect x="230" y="390" width="300" height="170" rx="20" fill="#FFFFFF" stroke="#D6EDE8"/>
    <text x="255" y="438" fill="#173533" font-family="Segoe UI, Arial, sans-serif" font-size="28" font-weight="700">change_color</text>
    <text x="255" y="474" fill="#5B7974" font-family="Segoe UI, Arial, sans-serif" font-size="16">发送主题：newchuangan1/ir/send/named</text>
    <text x="255" y="501" fill="#5B7974" font-family="Segoe UI, Arial, sans-serif" font-size="16">发送内容：change_color</text>
    <rect x="255" y="518" width="118" height="42" rx="12" fill="#0F766E"/>
    <text x="301" y="545" fill="#FFFFFF" font-family="Segoe UI, Arial, sans-serif" font-size="20" font-weight="700">发送</text>
    <rect x="387" y="518" width="118" height="42" rx="12" fill="#FFF1F2" stroke="#F3C6D0"/>
    <text x="431" y="545" fill="#BE123C" font-family="Segoe UI, Arial, sans-serif" font-size="20" font-weight="700">删除</text>
  </g>
  <g>
    <rect x="570" y="390" width="300" height="170" rx="20" fill="#FFFFFF" stroke="#D6EDE8"/>
    <text x="595" y="438" fill="#173533" font-family="Segoe UI, Arial, sans-serif" font-size="28" font-weight="700">openthis</text>
    <text x="595" y="474" fill="#5B7974" font-family="Segoe UI, Arial, sans-serif" font-size="16">发送主题：newchuangan1/ir/send/named</text>
    <text x="595" y="501" fill="#5B7974" font-family="Segoe UI, Arial, sans-serif" font-size="16">发送内容：openthis</text>
    <rect x="595" y="518" width="118" height="42" rx="12" fill="#0F766E"/>
    <text x="641" y="545" fill="#FFFFFF" font-family="Segoe UI, Arial, sans-serif" font-size="20" font-weight="700">发送</text>
    <rect x="727" y="518" width="118" height="42" rx="12" fill="#FFF1F2" stroke="#F3C6D0"/>
    <text x="771" y="545" fill="#BE123C" font-family="Segoe UI, Arial, sans-serif" font-size="20" font-weight="700">删除</text>
  </g>
  <g>
    <rect x="910" y="390" width="300" height="170" rx="20" fill="#FFFFFF" stroke="#D6EDE8"/>
    <text x="935" y="438" fill="#173533" font-family="Segoe UI, Arial, sans-serif" font-size="28" font-weight="700">turn_off</text>
    <text x="935" y="474" fill="#5B7974" font-family="Segoe UI, Arial, sans-serif" font-size="16">发送主题：newchuangan1/ir/send/named</text>
    <text x="935" y="501" fill="#5B7974" font-family="Segoe UI, Arial, sans-serif" font-size="16">发送内容：turn_off</text>
    <rect x="935" y="518" width="118" height="42" rx="12" fill="#0F766E"/>
    <text x="981" y="545" fill="#FFFFFF" font-family="Segoe UI, Arial, sans-serif" font-size="20" font-weight="700">发送</text>
    <rect x="1067" y="518" width="118" height="42" rx="12" fill="#FFF1F2" stroke="#F3C6D0"/>
    <text x="1111" y="545" fill="#BE123C" font-family="Segoe UI, Arial, sans-serif" font-size="20" font-weight="700">删除</text>
  </g>
  <g>
    <rect x="230" y="590" width="300" height="170" rx="20" fill="#FFFFFF" stroke="#D6EDE8"/>
    <text x="255" y="638" fill="#173533" font-family="Segoe UI, Arial, sans-serif" font-size="28" font-weight="700">test_ir</text>
    <text x="255" y="674" fill="#5B7974" font-family="Segoe UI, Arial, sans-serif" font-size="16">发送主题：newchuangan1/ir/send/named</text>
    <text x="255" y="701" fill="#5B7974" font-family="Segoe UI, Arial, sans-serif" font-size="16">发送内容：test_ir</text>
    <rect x="255" y="718" width="118" height="42" rx="12" fill="#0F766E"/>
    <text x="301" y="745" fill="#FFFFFF" font-family="Segoe UI, Arial, sans-serif" font-size="20" font-weight="700">发送</text>
    <rect x="387" y="718" width="118" height="42" rx="12" fill="#FFF1F2" stroke="#F3C6D0"/>
    <text x="431" y="745" fill="#BE123C" font-family="Segoe UI, Arial, sans-serif" font-size="20" font-weight="700">删除</text>
  </g>
</svg>
